<svg width="40" height="42" viewBox="0 0 40 42" fill="none" xmlns="http://www.w3.org/2000/svg">
<g clip-path="url(#clip0)">
<ellipse cx="20" cy="21.0849" rx="20" ry="20.4834" stroke="#E3CDB1"/>
<mask id="mask0" mask-type="alpha" maskUnits="userSpaceOnUse" x="11" y="11" width="18" height="20">
<path fill-rule="evenodd" clip-rule="evenodd" d="M11.1113 30.1817H28.882V11.9814H11.1113V30.1817Z" fill="white"/>
</mask>
<g mask="url(#mask0)">
<path fill-rule="evenodd" clip-rule="evenodd" d="M27.9013 11.9814H12.0921C11.5504 11.9814 11.1113 12.4311 11.1113 12.9859V29.1772C11.1113 29.7319 11.5504 30.1817 12.0921 30.1817H20.6033V23.1336H18.2874V20.3868H20.6033V18.3611C20.6033 16.0104 22.0051 14.7304 24.0527 14.7304C25.0335 14.7304 25.8765 14.8051 26.1221 14.8385V17.2952L24.702 17.2959C23.5885 17.2959 23.3728 17.8378 23.3728 18.6331V20.3868H26.0286L25.6828 23.1336H23.3728V30.1817H27.9013C28.4429 30.1817 28.882 29.7319 28.882 29.1772V12.9859C28.882 12.4311 28.4429 11.9814 27.9013 11.9814Z" fill="#E3CDB1"/>
</g>
</g>
<defs>
<clipPath id="clip0">
<rect width="40" height="40.9668" fill="white" transform="translate(0 0.601562)"/>
</clipPath>
</defs>
</svg>
