<svg width="40" height="42" viewBox="0 0 40 42" fill="none" xmlns="http://www.w3.org/2000/svg">
<g clip-path="url(#clip0)">
<ellipse cx="20" cy="21.0849" rx="20" ry="20.4834" stroke="#E3CDB1"/>
<mask id="mask0" mask-type="alpha" maskUnits="userSpaceOnUse" x="9" y="12" width="23" height="18">
<path fill-rule="evenodd" clip-rule="evenodd" d="M31.3265 21.0901V29.232H9.45898V21.0901V12.9482H31.3265V21.0901Z" fill="white"/>
</mask>
<g mask="url(#mask0)">
<path fill-rule="evenodd" clip-rule="evenodd" d="M18.6007 23.1465L18.5999 17.7919L23.4635 20.4785L18.6007 23.1465ZM29.2792 16.8642C29.2792 16.8642 29.1033 15.551 28.5637 14.9727C27.8792 14.2136 27.112 14.2099 26.7601 14.1654C24.2413 13.9727 20.4629 13.9727 20.4629 13.9727H20.4551C20.4551 13.9727 16.6768 13.9727 14.1578 14.1654C13.806 14.2099 13.039 14.2136 12.3543 14.9727C11.8146 15.551 11.639 16.8642 11.639 16.8642C11.639 16.8642 11.459 18.4064 11.459 19.9486V21.3944C11.459 22.9366 11.639 24.4788 11.639 24.4788C11.639 24.4788 11.8146 25.7921 12.3543 26.3704C13.039 27.1294 13.9385 27.1054 14.339 27.185C15.7791 27.3312 20.459 27.3764 20.459 27.3764C20.459 27.3764 24.2413 27.3704 26.7601 27.1776C27.112 27.1332 27.8792 27.1294 28.5637 26.3704C29.1033 25.7921 29.2792 24.4788 29.2792 24.4788C29.2792 24.4788 29.459 22.9366 29.459 21.3944V19.9486C29.459 18.4064 29.2792 16.8642 29.2792 16.8642Z" fill="#E3CDB1"/>
</g>
</g>
<defs>
<clipPath id="clip0">
<rect width="40" height="40.9668" fill="white" transform="translate(0 0.601562)"/>
</clipPath>
</defs>
</svg>
